<svg width="283" height="299" viewBox="0 0 283 299" fill="none" xmlns="http://www.w3.org/2000/svg">
<path d="M193.94 5.09912L135.126 63.8631H214.104V280.451C255.089 251.135 269.982 229.322 283 181.391V5.09912H193.94Z" fill="#BA0000"/>
<path fill-rule="evenodd" clip-rule="evenodd" d="M201.356 211.698C187.985 225.883 169.321 234.559 146.799 234.559C99.5181 234.559 61.1892 196.319 61.1892 149.149C61.1892 119.303 70.1126 90.5092 101.982 71.3876C108.827 67.2806 113.998 64.585 118.071 62.8839L178.085 2.92042C168.913 1.00497 159.254 0 149.149 0C66.7761 0 0 66.7761 0 149.149C0 231.521 66.7761 298.297 149.149 298.297C168.238 298.297 185.736 294.711 201.356 288.176V211.698ZM214.104 193.557V280.451C218.665 277.188 222.904 274.018 226.852 270.895C250.708 252.026 263.985 234.856 274.045 209.166C278.4 197.203 281.422 184.418 283 171.056V127.242C276.257 70.1282 243.125 23.5469 192.301 6.73649L136.794 62.1963C139.354 62.9916 142.367 63.739 146.799 63.739C154.288 63.739 164.938 61.1116 176.07 58.3652C195.363 53.6055 216.105 48.4881 224.36 56.0689C236.004 66.7613 231.748 93.7733 227.876 118.35C226.077 129.769 224.36 140.663 224.36 149.149C224.36 165.414 220.76 180.617 214.104 193.557Z" fill="#BA0000"/>
</svg>
